<svg width="2569" height="770" viewBox="0 0 2569 770" fill="none" xmlns="http://www.w3.org/2000/svg">
<g filter="url(#filter0_d_502_85)">
<path fill-rule="evenodd" clip-rule="evenodd" d="M889.416 279.039C892.514 278.663 895.196 281.185 895.01 284.3L890.741 355.808C890.669 357.014 890.163 358.153 889.316 359.015L613.227 639.918C610.626 642.564 606.151 641.555 604.936 638.049L590.393 596.066C588.942 591.876 585.711 588.543 581.568 586.962L541.235 571.568C537.885 570.289 536.93 566.002 539.422 563.422L802.918 290.668C803.715 289.842 804.772 289.316 805.911 289.178L889.416 279.039ZM904.992 284.896C905.55 275.551 897.505 267.983 888.211 269.112L804.706 279.251C801.288 279.666 798.117 281.244 795.725 283.72L740.575 340.808L572.896 291.836C567.562 290.278 561.803 291.797 557.931 295.784L532.708 321.754L513.354 341.683C506.07 349.183 508.471 361.693 518.139 365.851C547.764 378.592 584.438 393.885 613.998 405.946C628.777 411.976 641.795 417.205 651.273 420.906C654.63 422.217 657.558 423.341 659.971 424.245L532.23 556.474C530.847 557.906 529.817 559.514 529.122 561.207L480.956 556.878C476.52 556.479 472.136 558.073 468.991 561.227L418.385 611.986C410.417 619.979 413.796 633.577 424.579 636.908L513.919 664.513C515.401 664.972 516.588 666.092 517.129 667.547L548.535 751.97C552.523 762.692 566.565 765.182 573.997 756.485L607.523 717.253C609.745 714.653 611.011 711.371 611.113 707.953L612.799 651.098C615.535 650.52 618.168 649.156 620.359 646.927L751.126 513.88L818.952 675.861C823.096 685.757 835.987 688.23 843.499 680.569L890.703 632.426C894.589 628.463 895.969 622.678 894.29 617.387L834.518 429.034L896.448 366.025C898.989 363.44 900.507 360.022 900.723 356.404L904.992 284.896ZM667.575 416.373L732.726 348.933L570.093 301.435C568.315 300.916 566.395 301.422 565.104 302.751L539.882 328.721L520.528 348.65C518.077 351.173 518.922 355.302 522.09 356.665C551.646 369.376 588.262 384.645 617.776 396.687C632.534 402.709 645.5 407.916 654.91 411.591C659.621 413.43 663.411 414.873 666.08 415.84C666.635 416.041 667.134 416.219 667.575 416.373ZM480.061 566.838L528.65 571.205C529.913 575.436 533.024 579.137 537.669 580.91L578.002 596.305C579.383 596.832 580.46 597.943 580.944 599.339L595.487 641.323C596.844 645.24 599.558 648.118 602.834 649.777L601.117 707.656C601.083 708.796 600.661 709.89 599.921 710.756L566.395 749.989C563.917 752.888 559.237 752.058 557.907 748.484L526.501 664.06C524.878 659.696 521.32 656.334 516.871 654.959L427.531 627.354C423.937 626.243 422.811 621.711 425.467 619.047L476.072 568.288C477.121 567.236 478.582 566.705 480.061 566.838ZM826.587 437.103L758.728 506.145L828.176 671.999C829.558 675.298 833.855 676.122 836.358 673.568L883.563 625.425C884.858 624.104 885.318 622.175 884.759 620.412L826.587 437.103Z" fill="#2FB5B1"/>
</g>
<g filter="url(#filter1_d_502_85)">
<path fill-rule="evenodd" clip-rule="evenodd" d="M263 10H566C598.585 10 625 36.4152 625 69H592C592 45.804 573.196 27 550 27H278C254.804 27 236 45.804 236 69H204C204 36.4152 230.415 10 263 10ZM754 69H635C635 30.8924 604.108 0 566 0H263C224.892 0 194 30.8924 194 69H74C35.3401 69 4 100.34 4 139V534C4 572.66 35.3401 604 74 604H175V630.703C175 648.928 189.775 663.703 208 663.703C226.225 663.703 241 648.928 241 630.703V604H415.386L427.581 591H241V82H588V282.729L598 286.271V82H644V302.562L654 306.104V82H754C785.48 82 811 107.52 811 139V265.344L814 262.5H824V139C824 100.34 792.66 69 754 69ZM776.577 600.279L771.701 588.198C766.129 590.017 760.179 591 754 591H686.176L673.821 604H754C761.899 604 769.493 602.692 776.577 600.279ZM654 624.856L643.38 636.03C641.473 644.074 635.341 650.483 627.457 652.784L622.5 658V663.67C640.029 662.885 654 648.426 654 630.703V624.856ZM598 406.531L588 401.983V492.619L598 482.186V406.531ZM644 434.195V427.453L648.5 429.5L644 434.195ZM550 37H278C260.327 37 246 51.3269 246 69H582C582 51.3269 567.673 37 550 37ZM175 82H74C42.5198 82 17 107.52 17 139V534C17 565.48 42.5198 591 74 591H175V82ZM185 82H231V591H185V82ZM185 604V630.703C185 643.406 195.297 653.703 208 653.703C220.703 653.703 231 643.406 231 630.703V604H185Z" fill="#2FB5B1"/>
</g>
<path d="M1032.78 486.8C1012.78 486.8 995.316 482.667 980.383 474.4C965.449 465.867 953.049 454.133 943.183 439.2L966.383 420C974.916 432.533 984.516 442.267 995.183 449.2C1005.85 455.867 1018.38 459.2 1032.78 459.2C1070.65 459.2 1089.58 441.467 1089.58 406C1089.58 391.6 1086.12 380.667 1079.18 373.2C1072.25 365.733 1060.25 359.867 1043.18 355.6L1022.38 350.4C997.849 344.267 979.716 335.333 967.983 323.6C956.516 311.6 950.783 294.8 950.783 273.2C950.783 248.4 958.516 229.733 973.983 217.2C989.449 204.4 1009.98 198 1035.58 198C1055.05 198 1071.32 201.6 1084.38 208.8C1097.72 216 1109.32 227.333 1119.18 242.8L1095.58 259.6C1088.38 248.4 1080.12 240 1070.78 234.4C1061.72 228.533 1049.58 225.6 1034.38 225.6C1017.32 225.6 1004.25 229.333 995.183 236.8C986.383 244.267 981.983 256.4 981.983 273.2C981.983 286.8 985.583 297.067 992.783 304C1000.25 310.933 1012.12 316.4 1028.38 320.4L1049.18 325.6C1062.25 328.8 1073.32 332.667 1082.38 337.2C1091.45 341.467 1098.78 346.8 1104.38 353.2C1110.25 359.6 1114.38 367.2 1116.78 376C1119.45 384.533 1120.78 394.533 1120.78 406C1120.78 432.4 1112.92 452.533 1097.18 466.4C1081.72 480 1060.25 486.8 1032.78 486.8ZM1240.14 343.6L1203.74 389.2V482H1171.74V202.8H1203.74V296L1201.34 353.6H1205.34L1246.54 296L1316.14 202.8H1352.94L1260.94 322.4L1358.94 482H1321.34L1240.14 343.6ZM1456.29 482V371.6L1369.89 202.8H1406.29L1470.69 335.6H1474.69L1539.09 202.8H1574.69L1488.29 371.6V482H1456.29ZM1729.13 482H1697.13V202.8H1799.93C1846.06 202.8 1869.13 229.333 1869.13 282.4C1869.13 327.2 1852.6 353.067 1819.53 360L1875.93 482H1839.93L1787.53 362H1729.13V482ZM1799.13 334.8C1822.86 334.8 1834.73 322 1834.73 296.4V269.2C1834.73 243.6 1822.86 230.8 1799.13 230.8H1729.13V334.8H1799.13ZM1916.38 482V455.6H1951.58V229.2H1916.38V202.8H2018.78V229.2H1983.58V455.6H2018.78V482H1916.38ZM2073.3 202.8H2160.9C2193.17 202.8 2218.1 214 2235.7 236.4C2253.3 258.533 2262.1 293.867 2262.1 342.4C2262.1 390.933 2253.3 426.4 2235.7 448.8C2218.1 470.933 2193.17 482 2160.9 482H2073.3V202.8ZM2160.9 454C2180.9 454 2197.03 447.067 2209.3 433.2C2221.57 419.333 2227.7 399.467 2227.7 373.6V311.2C2227.7 285.333 2221.57 265.467 2209.3 251.6C2197.03 237.733 2180.9 230.8 2160.9 230.8H2105.3V454H2160.9ZM2316.27 482V202.8H2470.67V230.8H2348.27V326.8H2463.07V354.8H2348.27V454H2470.67V482H2316.27Z" fill="#2FB5B1"/>
<defs>
<filter id="filter0_d_502_85" x="410" y="269" width="499.02" height="500.745" filterUnits="userSpaceOnUse" color-interpolation-filters="sRGB">
<feFlood flood-opacity="0" result="BackgroundImageFix"/>
<feColorMatrix in="SourceAlpha" type="matrix" values="0 0 0 0 0 0 0 0 0 0 0 0 0 0 0 0 0 0 127 0" result="hardAlpha"/>
<feOffset dy="4"/>
<feGaussianBlur stdDeviation="2"/>
<feComposite in2="hardAlpha" operator="out"/>
<feColorMatrix type="matrix" values="0 0 0 0 0 0 0 0 0 0 0 0 0 0 0 0 0 0 0.25 0"/>
<feBlend mode="normal" in2="BackgroundImageFix" result="effect1_dropShadow_502_85"/>
<feBlend mode="normal" in="SourceGraphic" in2="effect1_dropShadow_502_85" result="shape"/>
</filter>
<filter id="filter1_d_502_85" x="0" y="0" width="828" height="671.703" filterUnits="userSpaceOnUse" color-interpolation-filters="sRGB">
<feFlood flood-opacity="0" result="BackgroundImageFix"/>
<feColorMatrix in="SourceAlpha" type="matrix" values="0 0 0 0 0 0 0 0 0 0 0 0 0 0 0 0 0 0 127 0" result="hardAlpha"/>
<feOffset dy="4"/>
<feGaussianBlur stdDeviation="2"/>
<feComposite in2="hardAlpha" operator="out"/>
<feColorMatrix type="matrix" values="0 0 0 0 0 0 0 0 0 0 0 0 0 0 0 0 0 0 0.25 0"/>
<feBlend mode="normal" in2="BackgroundImageFix" result="effect1_dropShadow_502_85"/>
<feBlend mode="normal" in="SourceGraphic" in2="effect1_dropShadow_502_85" result="shape"/>
</filter>
</defs>
</svg>
